<svg xmlns="http://www.w3.org/2000/svg" width="29.782" height="40" viewBox="0 0 29.782 40"><g transform="translate(-51.988 -0.001)"><g transform="translate(51.988 0.001)"><g transform="translate(0 0)"><path d="M148.935,3.032h-2.927a.822.822,0,0,1-.77-.616A2.978,2.978,0,0,0,142.209,0a3.029,3.029,0,0,0-3.029,2.465.77.77,0,0,1-.77.565h-2.824V8.167h13.35Z" transform="translate(-127.369 -0.001)" fill="#b7b9c8"/><path d="M81.769,93.664V64.243a2.105,2.105,0,0,0-2.1-2.111q-.08,0-.16.006H75.094v2.619c0,.411-.257.976-.668.976H59.28c-.411,0-.616-.565-.616-.976V62.138H54.248a2.105,2.105,0,0,0-2.254,1.946q-.006.08-.006.16V93.665a2.31,2.31,0,0,0,2.258,2.362H79.51a2.311,2.311,0,0,0,2.259-2.361ZM62.72,86.887l-4,3.748a.719.719,0,0,1-.513.257.822.822,0,0,1-.565-.257l-2.105-2.157a.782.782,0,0,1,1.13-1.078l1.54,1.643,3.492-3.286a.77.77,0,0,1,1.027,1.13Zm0-8.215h0l-4,3.748a.718.718,0,0,1-.513.257.822.822,0,0,1-.565-.257l-2.105-2.157a.782.782,0,0,1,1.13-1.078l1.54,1.643,3.492-3.286a.77.77,0,0,1,1.027,1.13Zm0-8.215-4,3.748a.718.718,0,0,1-.513.257.822.822,0,0,1-.565-.257l-2.105-2.157a.782.782,0,0,1,1.13-1.078l1.54,1.643,3.492-3.286a.77.77,0,0,1,1.027,1.13ZM77.661,89.865H65.852a.77.77,0,0,1,0-1.54H77.661a.77.77,0,0,1,0,1.54Zm0-8.215H65.852a.77.77,0,0,1,0-1.54H77.661a.77.77,0,0,1,0,1.54Zm0-8.215H65.852a.77.77,0,0,1,0-1.54H77.661a.77.77,0,0,1,0,1.54Z" transform="translate(-51.988 -56.026)" fill="#b7b9c8"/></g></g><rect width="24.668" height="23.587" transform="translate(54.988 12.875)" fill="#b7b9c8"/><g transform="translate(-0.555)"><rect width="9.268" height="2.8" transform="translate(57.543 16.905)" fill="#fff"/><rect width="18.268" height="2.8" transform="translate(57.543 22.905)" fill="#fff"/></g></g></svg>