<svg xmlns="http://www.w3.org/2000/svg" width="41.932" height="40" viewBox="0 0 41.932 40"><g transform="translate(0 -11.795)"><path d="M41.872,26.984a1.228,1.228,0,0,0-.992-.836l-13-1.889L22.068,12.48a1.229,1.229,0,0,0-2.2,0L14.051,24.259l-13,1.889a1.228,1.228,0,0,0-.681,2.1l9.406,9.169L7.557,50.359a1.228,1.228,0,0,0,1.783,1.3l11.627-6.113,11.626,6.113a1.228,1.228,0,0,0,1.783-1.295L32.154,37.412l9.407-9.169A1.228,1.228,0,0,0,41.872,26.984Z" transform="translate(0)" fill="#fdd446"/><path d="M276.907,26.984a1.228,1.228,0,0,0-.992-.836l-13-1.889L257.1,12.48A1.228,1.228,0,0,0,256,11.8V45.541l11.626,6.113a1.228,1.228,0,0,0,1.783-1.295l-2.221-12.947,9.407-9.169A1.228,1.228,0,0,0,276.907,26.984Z" transform="translate(-235.035)" fill="#f0e8c9"/></g></svg>