<svg xmlns="http://www.w3.org/2000/svg" width="31.492" height="39.999" viewBox="0 0 31.492 39.999"><g transform="translate(-1.811 -14.438)"><path d="M40.492,34.248v23.8c0,2.012-1.215,3.648-2.715,3.648H11.715C10.217,61.7,9,60.063,9,58.048V34.218a4.69,4.69,0,0,1,1.835-3.937l11.551-8.145a6.661,6.661,0,0,1,4.765,0l11.51,8.176A4.691,4.691,0,0,1,40.492,34.248Z" transform="translate(-7.189 -7.258)" fill="#3e45aa"/><g transform="translate(0.968 0.102)"><path d="M582.946,482.386h0c2.4,0,7.694-3.944,7.694-3.944" transform="translate(-566.007 -437.84)" fill="none" stroke="#a1dbf5" stroke-linecap="round" stroke-width="2"/><path d="M589.574,482.386h0c-2.4,0-7.694-3.944-7.694-3.944" transform="translate(-573.612 -437.84)" fill="none" stroke="#a1dbf5" stroke-linecap="round" stroke-width="2"/></g></g></svg>