<svg xmlns="http://www.w3.org/2000/svg" width="19.001" height="19" viewBox="0 0 19.001 19"><g transform="translate(-5 -1)"><rect width="11" height="19" rx="5.5" transform="translate(5 1)" fill="#a1dbf5"/><g transform="translate(0 -1.248)"><path d="M20.414,12.626H8.611a.693.693,0,0,1,0-1.376h11.8a.693.693,0,0,1,0,1.376Z" transform="translate(2.975)" fill="#fff"/><path d="M19.25,16.75a.75.75,0,0,1-.53-1.281L22.19,12l-3.47-3.47a.75.75,0,0,1,1.061-1.061l4,4a.75.75,0,0,1,0,1.061l-4,4A.745.745,0,0,1,19.25,16.75Z" fill="#fff"/></g></g></svg>