<svg xmlns="http://www.w3.org/2000/svg" width="41.299" height="40" viewBox="0 0 41.299 40"><g transform="translate(-1.811 -14.437)"><path d="M50.3,34.248v23.8a3.606,3.606,0,0,1-3.56,3.648H12.56A3.606,3.606,0,0,1,9,58.048V34.218a4.387,4.387,0,0,1,2.406-3.937l16.375-8.147a4.182,4.182,0,0,1,3.737,0L47.9,30.313A4.387,4.387,0,0,1,50.3,34.248Z" transform="translate(-7.189 -7.258)" fill="#3e45aa"/><path d="M576.924,478.442s3.55,4.148,6.077,4.148,5.854-4.148,5.854-4.148" transform="translate(-560.205 -435.84)" fill="none" stroke="#a1dbf5" stroke-linecap="round" stroke-width="1"/></g></svg>