<svg xmlns="http://www.w3.org/2000/svg" width="413.999" height="97.609" viewBox="0 0 413.999 97.609"><path d="M-1718,107h-151v-.323h-121l.005-97.124.526,0c9.523-.037,43.331-.159,78.525-.159,23.474,0,42.893.055,57.718.162a58.774,58.774,0,0,1,17.278,2.351,27.247,27.247,0,0,1,10.414,5.83c5.147,4.743,7.163,10.789,9.112,16.636.782,2.344,1.52,4.558,2.428,6.6,4.915,12.992,18.669,22.789,31.994,22.789,13.117,0,26.334-9.306,31.427-22.128a66.777,66.777,0,0,0,2.7-7.261c1.932-5.851,3.928-11.9,9.025-16.641a26.905,26.905,0,0,1,10.311-5.83,57.655,57.655,0,0,1,17.107-2.351c14.679-.108,33.907-.162,57.15-.162,40.411,0,77.926.16,78.272.162l.005,97.124h-142V107Z" transform="translate(1990 -9.391)" fill="#fff"/></svg>