<svg xmlns="http://www.w3.org/2000/svg" width="413.999" height="97.286" viewBox="0 0 413.999 97.286"><path d="M-1576,101.677h-414l.005-97.124.541,0c9.769-.037,44.44-.159,80.457-.159,24.053,0,43.95.055,59.141.162a61.6,61.6,0,0,1,17.7,2.351,28.113,28.113,0,0,1,10.67,5.83c5.275,4.744,7.34,10.79,9.337,16.637,1.489,4.359,2.9,8.477,5.5,11.538C-1801.05,48.983-1791.9,54-1782.769,54c12.894,0,25.6-9.74,28.923-22.175.282-.8.553-1.595.839-2.438l.006-.018c1.988-5.847,4.044-11.894,9.293-16.637a27.926,27.926,0,0,1,10.619-5.83,61.028,61.028,0,0,1,17.618-2.351c15.118-.108,34.92-.162,58.856-.162,41.659,0,80.252.16,80.608.162Z" transform="translate(1990 -4.39)" fill="#fff"/></svg>